<?xml version="1.0" encoding="utf-8"?>
<!-- Generator: Adobe Illustrator 21.1.0, SVG Export Plug-In . SVG Version: 6.00 Build 0)  -->
<svg version="1.1" id="Layer_1" xmlns="http://www.w3.org/2000/svg" xmlns:xlink="http://www.w3.org/1999/xlink" x="0px" y="0px"
	 viewBox="0 0 1200 142" style="enable-background:new 0 0 1200 142;" xml:space="preserve">
<style type="text/css">
	.st0{fill:#383838;}
	.st1{fill:#1AA130;}
</style>
<g>
	<g>
		<path class="st0" d="M198.7,109.1h-10.5V55.3h10.5v8.1c3.2-6.4,10.9-9.2,16.8-9.2c13.3,0,20.7,8.7,20.7,23.8v31.1
			c-1.7,0-8.9,0-10.5,0V78.7c0-9-4.5-14.3-11.9-14.3c-7.6,0-15.2,4.3-15.2,15.6V109.1z"/>
		<path class="st0" d="M301.1,86.2h-43.6c1.3,9,8.3,14.6,17.4,14.6c6.4,0,12.4-3,15.4-8.3c2.8,1.2,6.1,2.3,9,3.5
			c-4.6,9.4-14.4,14.3-24.7,14.3c-15.3,0-27.5-11.2-27.5-28.2c0-17,12.2-27.8,27.5-27.8c15.3,0,26.7,10.8,26.7,27.8
			C301.2,83.3,301.2,85,301.1,86.2z M290.9,78c-1.3-9-7.7-14.4-16.3-14.4c-8.9,0-15.8,5.4-17,14.4H290.9z"/>
		<path class="st0" d="M317.4,28.7c4,0,7.3,2.9,7.3,6.8c0,3.9-3.2,6.8-7.3,6.8c-3.9,0-7.3-2.9-7.3-6.8
			C310.1,31.6,313.5,28.7,317.4,28.7z M322.6,55.3h-10.4v53.7h10.4V55.3z"/>
		<path class="st0" d="M360.9,126c11.6,0,19.1-6.6,19.1-24.4c0-0.5-0.1-0.8-0.1-1.3c-3.2,6.3-11.4,9.9-18.9,9.9
			c-14.7,0-27.3-10.8-27.3-27.8c0-17.1,12.5-28.2,27.3-28.2c7.5,0,15.3,3.3,18.9,9.6v-8.4h10.4v45.6c0,25.3-11.6,35-29.3,35
			c-9.9,0-19.1-5.1-24.3-14.5c1.4-0.6,7.4-3.9,8.7-4.6C348.6,122.8,354.9,126,360.9,126z M361.9,64.4c-9.7,0-17.5,7.4-17.5,17.8
			c0,10.9,7.8,17.7,17.5,17.7c8.6,0,17.8-6.3,17.8-17.7C379.7,70.7,371.5,64.4,361.9,64.4z"/>
		<path class="st0" d="M415.4,109.1h-10.5v-83h10.5v37.3c3.2-6.4,11.9-9.2,17.7-9.2c13.5,0,21.9,8.7,21.7,23.8v31.1
			c-1.7,0-8.7,0-10.5,0V78.7c0-8.9-5.3-14.3-12.7-14.3s-16.3,4.1-16.3,15.6V109.1z"/>
		<path class="st0" d="M479.5,109.1H469v-83h10.5v37.3c3.6-6.1,11-9.2,18.9-9.2c14.8,0,27.2,10.8,27.2,28c0,17-12.5,28.1-27.3,28.1
			c-7.5,0-15.2-3.3-18.8-9.4V109.1z M497.5,100c9.7,0,17.4-7.4,17.4-18c0-10.7-7.7-17.6-17.4-17.6c-8.6,0-17.8,6.1-17.8,17.6
			C479.6,93.4,487.9,100,497.5,100z"/>
		<path class="st0" d="M533.8,82c0-17,12.8-27.8,28.1-27.8c15.3,0,28.2,10.8,28.2,27.8c0,17-12.9,28.2-28.2,28.2
			C546.5,110.2,533.8,99.1,533.8,82z M579.6,82c0-10.8-8.1-17.6-17.7-17.6c-9.7,0-17.7,6.8-17.7,17.6c0,10.9,8.1,18.1,17.7,18.1
			C571.5,100.1,579.6,93,579.6,82z"/>
		<path class="st0" d="M612.1,109.1h-10.5V55.3h10.5v12.1c2.8-9.4,7.9-13.2,15-13.2c3.8,0,7.8,1,9.3,2.1l-1.6,9.8
			c-2.9-1.4-5.8-1.8-7.9-1.8c-10.4,0-14.7,11-14.7,25.3V109.1z"/>
		<path class="st0" d="M655.1,109.1h-10.5v-83h10.5v37.3c3.2-6.4,11.9-9.2,17.7-9.2c13.5,0,21.9,8.7,21.7,23.8v31.1
			c-1.7,0-8.7,0-10.5,0V78.7c0-8.9-5.3-14.3-12.7-14.3s-16.3,4.1-16.3,15.6V109.1z"/>
		<path class="st0" d="M705.2,82c0-17,12.8-27.8,28.1-27.8c15.3,0,28.2,10.8,28.2,27.8c0,17-12.9,28.2-28.2,28.2
			C718,110.2,705.2,99.1,705.2,82z M751,82c0-10.8-8.1-17.6-17.7-17.6c-9.7,0-17.7,6.8-17.7,17.6c0,10.9,8.1,18.1,17.7,18.1
			C743,100.1,751,93,751,82z"/>
		<path class="st0" d="M769.7,82c0-17,12.8-27.8,28.1-27.8C813.1,54.2,826,65,826,82c0,17-12.9,28.2-28.2,28.2
			C782.5,110.2,769.7,99.1,769.7,82z M815.5,82c0-10.8-8.1-17.6-17.7-17.6c-9.7,0-17.7,6.8-17.7,17.6c0,10.9,8.1,18.1,17.7,18.1
			C807.4,100.1,815.5,93,815.5,82z"/>
		<path class="st0" d="M880.2,100.8c-3.6,6.1-11.4,9.4-18.9,9.4c-14.7,0-27.2-11-27.2-28.1c0-17.1,12.3-28,27-28
			c7.9,0,15.4,3.1,19,9.2V26.1h10.5v83h-10.5V100.8z M862.2,64.4c-9.7,0-17.4,6.9-17.4,17.6c0,10.6,7.7,18,17.4,18
			c9.4,0,17.8-6.6,17.8-18C880.1,70.5,870.9,64.4,862.2,64.4z"/>
		<path class="st0" d="M903.7,67.9c0.8-7.8,9.1-13.7,18.6-13.7c9.1,0,17.7,4.3,18.6,15.2h-10c-0.6-4-4.3-6.1-8.4-6.1
			c-3.9,0-7.3,2-8.1,4.8c-0.5,1.7-0.5,3,0.1,4.3c1,2.2,3.6,3.3,6.3,4.1l7.9,2c11.2,2.8,13.9,9.6,13.9,15.6c0,10-9.7,16.1-20.8,16.1
			c-9.7,0-19.7-6.2-20-17.3h9.6c0.3,2.3,1.8,4.8,4.4,6.1c2.3,1.4,5.1,2.1,8.5,1.8c4.8-0.3,8.1-3.1,8.2-7c0.1-3.9-3.2-5.9-7.1-6.8
			l-7.4-1.7C908.3,82.7,902.8,77.8,903.7,67.9z"/>
		<path class="st0" d="M961,95.8c4.1,0,7.6,3.1,7.6,7.2c0,4.1-3.5,7.1-7.6,7.1c-4,0-7.5-3-7.5-7.1C953.5,98.9,956.9,95.8,961,95.8z"
			/>
		<path class="st0" d="M1005.3,54.2c8.2,0,15.6,3.1,20.7,8.6l-7.9,6.7c-3.2-3.2-7.8-5.1-12.8-5.1c-9.7,0-18.1,6.8-18.1,17.6
			s8.4,18.1,18.1,18.1c4.9,0,9.6-2,12.8-5.3l8.1,6.7c-5.1,5.5-12.5,8.7-20.8,8.7c-15.3,0-28.4-11.2-28.4-28.2
			C976.9,65,990,54.2,1005.3,54.2z"/>
		<path class="st0" d="M1031.1,82c0-17,12.8-27.8,28.1-27.8c15.3,0,28.2,10.8,28.2,27.8c0,17-12.9,28.2-28.2,28.2
			C1043.9,110.2,1031.1,99.1,1031.1,82z M1076.9,82c0-10.8-8.1-17.6-17.7-17.6c-9.7,0-17.7,6.8-17.7,17.6c0,10.9,8.1,18.1,17.7,18.1
			C1068.9,100.1,1076.9,93,1076.9,82z"/>
		<path class="st0" d="M1146.5,80.1v29c-1.6,0-8.7,0-10.5,0V78.6c0-8.9-4.6-14.2-11.6-14.2c-7.5,0-15,4.4-15,15.6v29h-10.5V55.3
			h10.5v8.1c2.9-6,10.5-8.6,14.8-9c2.1-0.1,4,0,5.9,0.3c6.8,1,11.5,4.6,14,10.5c4.9-9.6,13.3-11,18.6-11c13.5,0,20.7,8.7,20.7,23.8
			v31.1h-10.5V78.7c0-8.9-4.6-14.3-12.3-14.3C1151.9,64.3,1146.5,71.1,1146.5,80.1z"/>
	</g>
	<g>
		<path class="st1" d="M130.6,14.1L130.6,14.1v83c0,15.1-12.1,27.2-27.2,27.2h-5.3c-15.1,0-27.2-12.1-27.2-27.2V44.7l0,0
			c-0.5-4.4-4.4-7.8-8.7-7.8h-1c-4.4,0-8.3,3.4-8.7,7.8l0,0v52c0,25.3,20.9,46.1,46.1,46.1h5.3c25.3,0,46.1-20.9,46.1-46.1V33h11.7
			V14.1H130.6z"/>
		<path class="st1" d="M63.6,18.9c15.1,0,27.2,12.1,27.2,27.2v47.6l0,0c0,4.9,3.9,9.2,8.7,9.2h1c4.9,0,8.7-3.9,8.7-9.2V46.1
			C109.3,20.9,88.4,0,63.1,0h-5.3C32.5,0,11.7,20.9,11.7,46.1v59.7H0v18.9h31.1V46.1c0-15.1,12.1-27.2,27.2-27.2H63.6z"/>
	</g>
	<g>
		<path class="st0" d="M1191.9,37.9c4.5,0,8.1,3.7,8.1,8.2s-3.6,8.1-8.1,8.1c-4.5,0-8-3.6-8-8.1S1187.5,37.9,1191.9,37.9z
			 M1191.9,52.7c3.7,0,6.6-3,6.6-6.7c0-3.7-2.9-6.7-6.6-6.7c-3.7,0-6.6,3-6.6,6.7C1185.3,49.8,1188.2,52.7,1191.9,52.7z
			 M1193.2,47.2c1.2-0.3,1.8-1.4,1.8-2.5c0-1.3-0.9-2.7-2.6-2.7h-3.2v8.1h1.6v-2.8h0.5l2,2.8h1.9L1193.2,47.2z M1192.3,43.6
			c0.7,0,1.1,0.5,1.1,1.1c0,0.6-0.4,1.1-1.1,1.1h-1.5v-2.2H1192.3z"/>
	</g>
</g>
</svg>
